<?xml version="1.0" encoding="UTF-8"?>
<svg width="1024px" height="1024px" viewBox="0 0 1024 1024" version="1.1" xmlns="http://www.w3.org/2000/svg" xmlns:xlink="http://www.w3.org/1999/xlink">
    <!-- Generator: Sketch 52.5 (67469) - http://www.bohemiancoding.com/sketch -->
    <title>icon1024</title>
    <desc>Created with Sketch.</desc>
    <defs>
        <linearGradient x1="50%" y1="0%" x2="50%" y2="100%" id="linearGradient-1">
            <stop stop-color="#F6F6F6" offset="0%"></stop>
            <stop stop-color="#999999" offset="100%"></stop>
        </linearGradient>
        <linearGradient x1="50%" y1="0%" x2="50%" y2="100%" id="linearGradient-2">
            <stop stop-color="#FFFFFF" offset="0%"></stop>
            <stop stop-color="#999999" offset="100%"></stop>
        </linearGradient>
        <linearGradient x1="50%" y1="0%" x2="50%" y2="100%" id="linearGradient-3">
            <stop stop-color="#DBDBDB" offset="0%"></stop>
            <stop stop-color="#5F5F5F" offset="100%"></stop>
        </linearGradient>
    </defs>
    <g id="1024" stroke="none" stroke-width="1" fill="none" fill-rule="evenodd">
        <g id="Mono">
            <g id="Icon" transform="translate(75.000000, 29.000000)">
                <polygon id="Face-Back" fill="url(#linearGradient-1)" fill-rule="nonzero" points="437.5 0 875 241.25 875 723.75 437.5 955 2.7929048e-13 723.75 0 241.25"></polygon>
                <polygon id="Face-Left" fill="url(#linearGradient-2)" fill-rule="nonzero" points="0.000473022461 241.240402 437.661526 459.652329 437.506529 954.977938 0.000473022461 723.745346"></polygon>
                <polygon id="Face-Right" fill="url(#linearGradient-3)" fill-rule="nonzero" transform="translate(655.830526, 597.868768) scale(-1, 1) translate(-655.830526, -597.868768) " points="437 241 874.661053 459.411927 874.506056 954.737535 437 723.504944"></polygon>
                <polygon id="Tape-Side" fill="#000000" fill-rule="nonzero" points="616.004588 369.078967 612.53 528.661159 710.672022 476.3127 713.990169 320.2"></polygon>
                <polygon id="Tape-Top" fill="#212121" fill-rule="nonzero" points="714.00679 321.214294 261.143502 96.1950711 170.026474 147.489395 616.023371 370.079784"></polygon>
            </g>
        </g>
    </g>
</svg>