<?xml version="1.0" encoding="UTF-8"?>
<svg width="1024px" height="1024px" viewBox="0 0 1024 1024" version="1.1" xmlns="http://www.w3.org/2000/svg" xmlns:xlink="http://www.w3.org/1999/xlink">
    <!-- Generator: Sketch 52.5 (67469) - http://www.bohemiancoding.com/sketch -->
    <title>icon-1024</title>
    <desc>Created with Sketch.</desc>
    <g id="1024" stroke="none" stroke-width="1" fill="none" fill-rule="evenodd">
        <g id="Icon">
            <g id="Pallet" transform="translate(79.000000, 460.000000)" fill-rule="nonzero">
                <polygon id="Left-Under" fill="#5A4331" points="45.9143577 244.137441 45.9143577 286.834123 97.1746535 266.522667"></polygon>
                <polygon id="Right-Under" fill="#5A4331" points="224.105793 325.151659 224.105793 367.848341 275.366089 347.536885"></polygon>
                <polygon id="Left" fill="#A08065" points="-1.42108547e-13 199.251185 -1.42108547e-13 269.317536 45.9143577 286.834123 45.9143577 244.137441 178.191436 304.350711 178.191436 350.331754 224.105793 367.848341 224.105793 325.151659 388.085642 399.597156 388.085642 444.483412 434 462 434 396.312796"></polygon>
                <polygon id="Right" fill="#644A37" transform="translate(651.000000, 330.625592) scale(-1, 1) translate(-651.000000, -330.625592) " points="434 199.251185 434 269.317536 868 462 868 396.312796"></polygon>
                <polygon id="Top" fill="#7B5F4A" points="0.162900812 199.268403 434.005872 396.317908 867.972877 199.268403 434.005872 0.713926183"></polygon>
            </g>
            <g id="Packages" stroke-width="1" fill-rule="evenodd" transform="translate(110.000000, 84.000000)">
                <g id="Package" transform="translate(207.000000, 204.000000)">
                    <polygon id="Left" fill="#62C3FF" fill-rule="nonzero" points="27.9287532 91 196.498728 164 196.498728 356 27.9287532 283.06422"></polygon>
                    <polygon id="Right" fill="#1F8CCF" fill-rule="nonzero" transform="translate(280.783715, 223.500000) scale(-1, 1) translate(-280.783715, -223.500000) " points="196.498728 91 365.068702 164 365.068702 356 196.498728 283.06422"></polygon>
                    <path d="M160.590331,185.04461 C156.42228,187.980832 151.807389,190.22657 146.923377,191.695342 C141.553916,185.529452 132.901126,183.36721 125.256823,186.281096 C117.612519,189.194982 112.602786,196.56516 112.712468,204.735993 L112.712468,209.082877 C97.1768192,209.485192 82.4711793,202.09296 73.5396715,189.391494 C73.5396715,189.391494 56.1295397,228.513448 95.3023363,245.900983 C86.3384147,251.97778 75.660038,255.024785 64.8346056,254.59475 C104.007402,276.329169 151.885265,254.59475 151.885265,204.605587 C151.881257,203.394778 151.764689,202.186957 151.537062,200.997673 C155.979271,196.622505 159.114071,191.098571 160.590331,185.04461 Z" id="Twitter" fill="#FFFFFF" fill-rule="evenodd"></path>
                    <polygon id="Top" fill="#1DA1F2" fill-rule="nonzero" transform="translate(196.498728, 91.000000) scale(-1, 1) translate(-196.498728, -91.000000) " points="196.998249 18 365.068702 91 196.498728 164 27.9287532 91"></polygon>
                    <polygon id="Tape-Top" fill="#1C73A8" fill-rule="nonzero" points="253.35369 139.4 93.7608142 62.4 132.661578 45.5 290.259542 123.4"></polygon>
                    <polygon id="Tape-Side" fill="#156290" fill-rule="nonzero" points="253.35369 139.4 253.35369 187 290.259542 170 290.259542 123.4"></polygon>
                </g>
                <g id="Package" transform="translate(206.000000, 0.000000)">
                    <polygon id="Left" fill="#62C3FF" fill-rule="nonzero" points="28 91 197 164 197 356 28 283.06422"></polygon>
                    <polygon id="Right" fill="#1F8CCF" fill-rule="nonzero" transform="translate(281.500000, 223.500000) scale(-1, 1) translate(-281.500000, -223.500000) " points="197 91 366 164 366 356 197 283.06422"></polygon>
                    <path d="M161,185.04461 C156.821316,187.980832 152.194653,190.22657 147.298182,191.695342 C141.915023,185.529452 133.24016,183.36721 125.576355,186.281096 C117.912551,189.194982 112.890038,196.56516 113,204.735993 L113,209.082877 C97.4247192,209.485192 82.681565,202.09296 73.7272727,189.391494 C73.7272727,189.391494 56.2727273,228.513448 95.5454545,245.900983 C86.5586657,251.97778 75.8530483,255.024785 65,254.59475 C104.272727,276.329169 152.272727,254.59475 152.272727,204.605587 C152.268709,203.394778 152.151844,202.186957 151.923636,200.997673 C156.377177,196.622505 159.519974,191.098571 161,185.04461 Z" id="Twitter" fill="#FFFFFF" fill-rule="evenodd"></path>
                    <polygon id="Top" fill="#1DA1F2" fill-rule="nonzero" transform="translate(197.000000, 91.000000) scale(-1, 1) translate(-197.000000, -91.000000) " points="197.500796 18 366 91 197 164 28 91"></polygon>
                    <polygon id="Tape-Top" fill="#1C73A8" fill-rule="nonzero" points="254 139.4 94 62.4 133 45.5 291 123.4"></polygon>
                    <polygon id="Tape-Side" fill="#156290" fill-rule="nonzero" points="254 139.4 254 187 291 170 291 123.4"></polygon>
                </g>
                <g id="Package" transform="translate(0.000000, 302.000000)">
                    <polygon id="Left" fill="#62C3FF" fill-rule="nonzero" points="28 91 197 164 197 356 28 283.06422"></polygon>
                    <polygon id="Right" fill="#1F8CCF" fill-rule="nonzero" transform="translate(281.500000, 223.500000) scale(-1, 1) translate(-281.500000, -223.500000) " points="197 91 366 164 366 356 197 283.06422"></polygon>
                    <path d="M161,185.04461 C156.821316,187.980832 152.194653,190.22657 147.298182,191.695342 C141.915023,185.529452 133.24016,183.36721 125.576355,186.281096 C117.912551,189.194982 112.890038,196.56516 113,204.735993 L113,209.082877 C97.4247192,209.485192 82.681565,202.09296 73.7272727,189.391494 C73.7272727,189.391494 56.2727273,228.513448 95.5454545,245.900983 C86.5586657,251.97778 75.8530483,255.024785 65,254.59475 C104.272727,276.329169 152.272727,254.59475 152.272727,204.605587 C152.268709,203.394778 152.151844,202.186957 151.923636,200.997673 C156.377177,196.622505 159.519974,191.098571 161,185.04461 Z" id="Twitter" fill="#FFFFFF" fill-rule="evenodd"></path>
                    <polygon id="Top" fill="#1DA1F2" fill-rule="nonzero" transform="translate(197.000000, 91.000000) scale(-1, 1) translate(-197.000000, -91.000000) " points="197.500796 18 366 91 197 164 28 91"></polygon>
                    <polygon id="Tape-Top" fill="#1C73A8" fill-rule="nonzero" points="254 139.4 94 62.4 133 45.5 291 123.4"></polygon>
                    <polygon id="Tape-Side" fill="#156290" fill-rule="nonzero" points="254 139.4 254 187 291 170 291 123.4"></polygon>
                </g>
                <g id="Package" transform="translate(0.000000, 98.000000)">
                    <polygon id="Left" fill="#62C3FF" fill-rule="nonzero" points="28 91 197 164 197 356 28 283.06422"></polygon>
                    <polygon id="Right" fill="#1F8CCF" fill-rule="nonzero" transform="translate(281.500000, 223.500000) scale(-1, 1) translate(-281.500000, -223.500000) " points="197 91 366 164 366 356 197 283.06422"></polygon>
                    <path d="M161,185.04461 C156.821316,187.980832 152.194653,190.22657 147.298182,191.695342 C141.915023,185.529452 133.24016,183.36721 125.576355,186.281096 C117.912551,189.194982 112.890038,196.56516 113,204.735993 L113,209.082877 C97.4247192,209.485192 82.681565,202.09296 73.7272727,189.391494 C73.7272727,189.391494 56.2727273,228.513448 95.5454545,245.900983 C86.5586657,251.97778 75.8530483,255.024785 65,254.59475 C104.272727,276.329169 152.272727,254.59475 152.272727,204.605587 C152.268709,203.394778 152.151844,202.186957 151.923636,200.997673 C156.377177,196.622505 159.519974,191.098571 161,185.04461 Z" id="Twitter" fill="#FFFFFF" fill-rule="evenodd"></path>
                    <polygon id="Top" fill="#1DA1F2" fill-rule="nonzero" transform="translate(197.000000, 91.000000) scale(-1, 1) translate(-197.000000, -91.000000) " points="197.500796 18 366 91 197 164 28 91"></polygon>
                    <polygon id="Tape-Top" fill="#1C73A8" fill-rule="nonzero" points="254 139.4 94 62.4 133 45.5 291 123.4"></polygon>
                    <polygon id="Tape-Side" fill="#156290" fill-rule="nonzero" points="254 139.4 254 187 291 170 291 123.4"></polygon>
                </g>
                <g id="Package" transform="translate(413.000000, 302.000000)">
                    <polygon id="Left" fill="#62C3FF" fill-rule="nonzero" points="28 91 197 164 197 356 28 283.06422"></polygon>
                    <polygon id="Right" fill="#1F8CCF" fill-rule="nonzero" transform="translate(281.500000, 223.500000) scale(-1, 1) translate(-281.500000, -223.500000) " points="197 91 366 164 366 356 197 283.06422"></polygon>
                    <path d="M161,185.04461 C156.821316,187.980832 152.194653,190.22657 147.298182,191.695342 C141.915023,185.529452 133.24016,183.36721 125.576355,186.281096 C117.912551,189.194982 112.890038,196.56516 113,204.735993 L113,209.082877 C97.4247192,209.485192 82.681565,202.09296 73.7272727,189.391494 C73.7272727,189.391494 56.2727273,228.513448 95.5454545,245.900983 C86.5586657,251.97778 75.8530483,255.024785 65,254.59475 C104.272727,276.329169 152.272727,254.59475 152.272727,204.605587 C152.268709,203.394778 152.151844,202.186957 151.923636,200.997673 C156.377177,196.622505 159.519974,191.098571 161,185.04461 Z" id="Twitter" fill="#FFFFFF" fill-rule="evenodd"></path>
                    <polygon id="Top" fill="#1DA1F2" fill-rule="nonzero" transform="translate(197.000000, 91.000000) scale(-1, 1) translate(-197.000000, -91.000000) " points="197.500796 18 366 91 197 164 28 91"></polygon>
                    <polygon id="Tape-Top" fill="#1C73A8" fill-rule="nonzero" points="254 139.4 94 62.4 133 45.5 291 123.4"></polygon>
                    <polygon id="Tape-Side" fill="#156290" fill-rule="nonzero" points="254 139.4 254 187 291 170 291 123.4"></polygon>
                </g>
                <g id="Package" transform="translate(413.000000, 98.000000)">
                    <polygon id="Left" fill="#62C3FF" fill-rule="nonzero" points="28 91 197 164 197 356 28 283.06422"></polygon>
                    <polygon id="Right" fill="#1F8CCF" fill-rule="nonzero" transform="translate(281.500000, 223.500000) scale(-1, 1) translate(-281.500000, -223.500000) " points="197 91 366 164 366 356 197 283.06422"></polygon>
                    <path d="M161,185.04461 C156.821316,187.980832 152.194653,190.22657 147.298182,191.695342 C141.915023,185.529452 133.24016,183.36721 125.576355,186.281096 C117.912551,189.194982 112.890038,196.56516 113,204.735993 L113,209.082877 C97.4247192,209.485192 82.681565,202.09296 73.7272727,189.391494 C73.7272727,189.391494 56.2727273,228.513448 95.5454545,245.900983 C86.5586657,251.97778 75.8530483,255.024785 65,254.59475 C104.272727,276.329169 152.272727,254.59475 152.272727,204.605587 C152.268709,203.394778 152.151844,202.186957 151.923636,200.997673 C156.377177,196.622505 159.519974,191.098571 161,185.04461 Z" id="Twitter" fill="#FFFFFF" fill-rule="evenodd"></path>
                    <polygon id="Top" fill="#1DA1F2" fill-rule="nonzero" transform="translate(197.000000, 91.000000) scale(-1, 1) translate(-197.000000, -91.000000) " points="197.500796 18 366 91 197 164 28 91"></polygon>
                    <polygon id="Tape-Top" fill="#1C73A8" fill-rule="nonzero" points="254 139.4 94 62.4 133 45.5 291 123.4"></polygon>
                    <polygon id="Tape-Side" fill="#156290" fill-rule="nonzero" points="254 139.4 254 187 291 170 291 123.4"></polygon>
                </g>
                <g id="Package" transform="translate(207.000000, 396.000000)">
                    <polygon id="Left" fill="#62C3FF" fill-rule="nonzero" points="28.0712468 91 197.501272 164 197.501272 356 28.0712468 283.06422"></polygon>
                    <polygon id="Right" fill="#1F8CCF" fill-rule="nonzero" transform="translate(282.216285, 223.500000) scale(-1, 1) translate(-282.216285, -223.500000) " points="197.501272 91 366.931298 164 366.931298 356 197.501272 283.06422"></polygon>
                    <path d="M161.409669,185.04461 C157.220353,187.980832 152.581916,190.22657 147.672986,191.695342 C142.27613,185.529452 133.579193,183.36721 125.895888,186.281096 C118.212583,189.194982 113.17729,196.56516 113.287532,204.735993 L113.287532,209.082877 C97.6726193,209.485192 82.8919507,202.09296 73.9148739,189.391494 C73.9148739,189.391494 56.4159149,228.513448 95.7885728,245.900983 C86.7789168,251.97778 76.0460586,255.024785 65.1653944,254.59475 C104.538052,276.329169 152.66019,254.59475 152.66019,204.605587 C152.656161,203.394778 152.538998,202.186957 152.310211,200.997673 C156.775084,196.622505 159.925877,191.098571 161.409669,185.04461 Z" id="Twitter" fill="#FFFFFF" fill-rule="evenodd"></path>
                    <polygon id="Top" fill="#1DA1F2" fill-rule="nonzero" transform="translate(197.501272, 91.000000) scale(-1, 1) translate(-197.501272, -91.000000) " points="198.003342 18 366.931298 91 197.501272 164 28.0712468 91"></polygon>
                    <polygon id="Tape-Top" fill="#1C73A8" fill-rule="nonzero" points="254.64631 139.4 94.2391858 62.4 133.338422 45.5 291.740458 123.4"></polygon>
                    <polygon id="Tape-Side" fill="#156290" fill-rule="nonzero" points="254.64631 139.4 254.64631 187 291.740458 170 291.740458 123.4"></polygon>
                </g>
            </g>
        </g>
    </g>
</svg>