<?xml version="1.0" encoding="UTF-8"?>
<svg width="1024px" height="1024px" viewBox="0 0 1024 1024" version="1.1" xmlns="http://www.w3.org/2000/svg" xmlns:xlink="http://www.w3.org/1999/xlink">
    <!-- Generator: Sketch 51.2 (57519) - http://www.bohemiancoding.com/sketch -->
    <title>icon1024</title>
    <desc>Created with Sketch.</desc>
    <defs>
        <linearGradient x1="50%" y1="0%" x2="50%" y2="100%" id="linearGradient-1">
            <stop stop-color="#40CAE5" offset="0%"></stop>
            <stop stop-color="#0A3FB2" offset="100%"></stop>
        </linearGradient>
        <linearGradient x1="50%" y1="0%" x2="50%" y2="100%" id="linearGradient-2">
            <stop stop-color="#309AAF" offset="0%"></stop>
            <stop stop-color="#042262" offset="100%"></stop>
        </linearGradient>
    </defs>
    <g id="1024" stroke="none" stroke-width="1" fill="none" fill-rule="evenodd">
        <g id="Color">
            <g id="Icon" transform="translate(75.439453, 29.000000)">
                <polygon id="Face-Back" fill="url(#linearGradient-1)" fill-rule="nonzero" points="440.063477 0 880.126953 241.25 880.126953 723.75 440.063477 955 2.80926947e-13 723.75 0 241.25"></polygon>
                <polygon id="Face-Left" fill="url(#linearGradient-1)" fill-rule="nonzero" points="0.000475794077 241.240402 440.225949 459.652329 440.070044 954.977938 0.000475794077 723.745346"></polygon>
                <polygon id="Face-Right" fill="url(#linearGradient-2)" fill-rule="nonzero" transform="translate(659.673283, 597.868768) scale(-1, 1) translate(-659.673283, -597.868768) " points="439.560547 241 879.78602 459.411927 879.630115 954.737535 439.560547 723.504944"></polygon>
                <polygon id="Tape-Side" fill="#263141" fill-rule="nonzero" points="619.617801 370.08197 616.122854 529.664162 714.839927 477.315703 718.177516 321.203003"></polygon>
                <polygon id="Tape-Top" fill="#37465D" fill-rule="nonzero" points="718.190424 321.214294 262.67364 96.1950711 171.022723 147.489395 619.632883 370.079784"></polygon>
            </g>
        </g>
    </g>
</svg>