<?xml version="1.0" encoding="UTF-8"?>
<svg width="1024px" height="1024px" viewBox="0 0 1024 1024" version="1.1" xmlns="http://www.w3.org/2000/svg" xmlns:xlink="http://www.w3.org/1999/xlink">
    <!-- Generator: Sketch 52.5 (67469) - http://www.bohemiancoding.com/sketch -->
    <title>icon-1024</title>
    <desc>Created with Sketch.</desc>
    <g id="1024" stroke="none" stroke-width="1" fill="none" fill-rule="evenodd">
        <g id="Icon">
            <g id="Pallet" transform="translate(46.000000, 460.000000)" fill-rule="nonzero">
                <polygon id="Left" fill="#5B4536" transform="translate(699.268340, 345.031670) scale(1, -1) translate(-699.268340, -345.031670) " points="465.976431 209.586057 932.56025 418.805335 932.56025 480.477283 465.976431 272.113289"></polygon>
                <polygon id="Left" fill="#8B6C56" points="0.00794109511 209.509192 466.59176 418.72847 466.59176 480.400418 0.00794109511 272.036424"></polygon>
                <polygon id="Center" fill="#6E5441" points="466.587212 0 0 209.508696 466.587212 418.735857 932.57591 209.508696"></polygon>
            </g>
            <g id="Packages" stroke-width="1" fill-rule="evenodd" transform="translate(110.000000, 84.000000)">
                <g id="Package" transform="translate(207.000000, 204.000000)">
                    <polygon id="Right" fill="#1F8CCF" fill-rule="nonzero" points="195.501272 177 391.002545 87 391.002545 283 195.501272 373"></polygon>
                    <polygon id="Left" fill="#62C3FF" fill-rule="nonzero" transform="translate(97.750636, 230.000000) scale(1, -1) translate(-97.750636, -230.000000) " points="0 177 195.501272 87 195.501272 283 0 373"></polygon>
                    <polygon id="Top" fill="#1DA1F2" fill-rule="nonzero" points="-8.52651283e-14 88.4024012 195.501272 177.02076 391.55594 88.4024012 195.586826 1.56319402e-13"></polygon>
                    <path d="M150.615776,187.049153 C146.013553,190.284414 140.917944,192.758869 135.525182,194.377228 C129.596402,187.583374 120.04228,185.200919 111.601694,188.411569 C103.161109,191.622219 97.6295282,199.74301 97.7506361,208.746 L97.7506361,213.535591 C80.5966904,213.97888 64.359213,205.833788 54.4973398,191.838744 C54.4973398,191.838744 35.2736526,234.945063 78.5269489,254.103427 C68.6292854,260.799114 56.8385778,264.15644 44.8854962,263.682609 C88.1387925,287.630564 141.003932,263.682609 141.003932,208.602313 C140.999507,207.26819 140.870796,205.937357 140.619459,204.626952 C145.524398,199.806196 148.985739,193.719678 150.615776,187.049153 Z" id="Twitter" fill="#FFFFFF" fill-rule="evenodd"></path>
                    <polygon id="Tape-Top" fill="#1C73A8" fill-rule="nonzero" points="270.506587 143.117279 83.7843266 50.547348 126.381486 31.2927246 310.886138 124.865194"></polygon>
                    <polygon id="Tape-Side" fill="#156290" fill-rule="nonzero" points="270.502037 143.112823 270.33435 195.009423 310.914216 175.559073 310.914216 124.862573"></polygon>
                </g>
                <g id="Package" transform="translate(206.000000, 0.000000)">
                    <polygon id="Right" fill="#1F8CCF" fill-rule="nonzero" points="196 177 392 87 392 283 196 373"></polygon>
                    <polygon id="Left" fill="#62C3FF" fill-rule="nonzero" transform="translate(98.000000, 230.000000) scale(1, -1) translate(-98.000000, -230.000000) " points="0 177 196 87 196 283 0 373"></polygon>
                    <polygon id="Top" fill="#1DA1F2" fill-rule="nonzero" points="-8.52651283e-14 88.4024012 196 177.02076 392.554807 88.4024012 196.085772 1.56319402e-13"></polygon>
                    <path d="M151,187.049153 C146.386037,190.284414 141.277429,192.758869 135.870909,194.377228 C129.927005,187.583374 120.34851,185.200919 111.886393,188.411569 C103.424275,191.622219 97.8785831,199.74301 98,208.746 L98,213.535591 C80.8022942,213.97888 64.5233947,205.833788 54.6363636,191.838744 C54.6363636,191.838744 35.3636364,234.945063 78.7272727,254.103427 C68.8043601,260.799114 56.9835742,264.15644 45,263.682609 C88.3636364,287.630564 141.363636,263.682609 141.363636,208.602313 C141.359199,207.26819 141.230161,205.937357 140.978182,204.626952 C145.895633,199.806196 149.365805,193.719678 151,187.049153 Z" id="Twitter" fill="#FFFFFF" fill-rule="evenodd"></path>
                    <polygon id="Tape-Top" fill="#1C73A8" fill-rule="nonzero" points="271.196655 143.117279 83.9980621 50.547348 126.703888 31.2927246 311.679214 124.865194"></polygon>
                    <polygon id="Tape-Side" fill="#156290" fill-rule="nonzero" points="271.192093 143.112823 271.023978 195.009423 311.707365 175.559073 311.707365 124.862573"></polygon>
                </g>
                <g id="Package" transform="translate(0.000000, 302.000000)">
                    <polygon id="Right" fill="#1F8CCF" fill-rule="nonzero" points="196 177 392 87 392 283 196 373"></polygon>
                    <polygon id="Left" fill="#62C3FF" fill-rule="nonzero" transform="translate(98.000000, 230.000000) scale(1, -1) translate(-98.000000, -230.000000) " points="0 177 196 87 196 283 0 373"></polygon>
                    <polygon id="Top" fill="#1DA1F2" fill-rule="nonzero" points="-8.52651283e-14 88.4024012 196 177.02076 392.554807 88.4024012 196.085772 1.56319402e-13"></polygon>
                    <path d="M151,187.049153 C146.386037,190.284414 141.277429,192.758869 135.870909,194.377228 C129.927005,187.583374 120.34851,185.200919 111.886393,188.411569 C103.424275,191.622219 97.8785831,199.74301 98,208.746 L98,213.535591 C80.8022942,213.97888 64.5233947,205.833788 54.6363636,191.838744 C54.6363636,191.838744 35.3636364,234.945063 78.7272727,254.103427 C68.8043601,260.799114 56.9835742,264.15644 45,263.682609 C88.3636364,287.630564 141.363636,263.682609 141.363636,208.602313 C141.359199,207.26819 141.230161,205.937357 140.978182,204.626952 C145.895633,199.806196 149.365805,193.719678 151,187.049153 Z" id="Twitter" fill="#FFFFFF" fill-rule="evenodd"></path>
                    <polygon id="Tape-Top" fill="#1C73A8" fill-rule="nonzero" points="271.196655 143.117279 83.9980621 50.547348 126.703888 31.2927246 311.679214 124.865194"></polygon>
                    <polygon id="Tape-Side" fill="#156290" fill-rule="nonzero" points="271.192093 143.112823 271.023978 195.009423 311.707365 175.559073 311.707365 124.862573"></polygon>
                </g>
                <g id="Package" transform="translate(0.000000, 98.000000)">
                    <polygon id="Right" fill="#1F8CCF" fill-rule="nonzero" points="196 177 392 87 392 283 196 373"></polygon>
                    <polygon id="Left" fill="#62C3FF" fill-rule="nonzero" transform="translate(98.000000, 230.000000) scale(1, -1) translate(-98.000000, -230.000000) " points="0 177 196 87 196 283 0 373"></polygon>
                    <polygon id="Top" fill="#1DA1F2" fill-rule="nonzero" points="-8.52651283e-14 88.4024012 196 177.02076 392.554807 88.4024012 196.085772 1.56319402e-13"></polygon>
                    <path d="M151,187.049153 C146.386037,190.284414 141.277429,192.758869 135.870909,194.377228 C129.927005,187.583374 120.34851,185.200919 111.886393,188.411569 C103.424275,191.622219 97.8785831,199.74301 98,208.746 L98,213.535591 C80.8022942,213.97888 64.5233947,205.833788 54.6363636,191.838744 C54.6363636,191.838744 35.3636364,234.945063 78.7272727,254.103427 C68.8043601,260.799114 56.9835742,264.15644 45,263.682609 C88.3636364,287.630564 141.363636,263.682609 141.363636,208.602313 C141.359199,207.26819 141.230161,205.937357 140.978182,204.626952 C145.895633,199.806196 149.365805,193.719678 151,187.049153 Z" id="Twitter" fill="#FFFFFF" fill-rule="evenodd"></path>
                    <polygon id="Tape-Top" fill="#1C73A8" fill-rule="nonzero" points="271.196655 143.117279 83.9980621 50.547348 126.703888 31.2927246 311.679214 124.865194"></polygon>
                    <polygon id="Tape-Side" fill="#156290" fill-rule="nonzero" points="271.192093 143.112823 271.023978 195.009423 311.707365 175.559073 311.707365 124.862573"></polygon>
                </g>
                <g id="Package" transform="translate(413.000000, 302.000000)">
                    <polygon id="Right" fill="#1F8CCF" fill-rule="nonzero" points="196 177 392 87 392 283 196 373"></polygon>
                    <polygon id="Left" fill="#62C3FF" fill-rule="nonzero" transform="translate(98.000000, 230.000000) scale(1, -1) translate(-98.000000, -230.000000) " points="0 177 196 87 196 283 0 373"></polygon>
                    <polygon id="Top" fill="#1DA1F2" fill-rule="nonzero" points="-8.52651283e-14 88.4024012 196 177.02076 392.554807 88.4024012 196.085772 1.56319402e-13"></polygon>
                    <path d="M151,187.049153 C146.386037,190.284414 141.277429,192.758869 135.870909,194.377228 C129.927005,187.583374 120.34851,185.200919 111.886393,188.411569 C103.424275,191.622219 97.8785831,199.74301 98,208.746 L98,213.535591 C80.8022942,213.97888 64.5233947,205.833788 54.6363636,191.838744 C54.6363636,191.838744 35.3636364,234.945063 78.7272727,254.103427 C68.8043601,260.799114 56.9835742,264.15644 45,263.682609 C88.3636364,287.630564 141.363636,263.682609 141.363636,208.602313 C141.359199,207.26819 141.230161,205.937357 140.978182,204.626952 C145.895633,199.806196 149.365805,193.719678 151,187.049153 Z" id="Twitter" fill="#FFFFFF" fill-rule="evenodd"></path>
                    <polygon id="Tape-Top" fill="#1C73A8" fill-rule="nonzero" points="271.196655 143.117279 83.9980621 50.547348 126.703888 31.2927246 311.679214 124.865194"></polygon>
                    <polygon id="Tape-Side" fill="#156290" fill-rule="nonzero" points="271.192093 143.112823 271.023978 195.009423 311.707365 175.559073 311.707365 124.862573"></polygon>
                </g>
                <g id="Package" transform="translate(413.000000, 98.000000)">
                    <polygon id="Right" fill="#1F8CCF" fill-rule="nonzero" points="196 177 392 87 392 283 196 373"></polygon>
                    <polygon id="Left" fill="#62C3FF" fill-rule="nonzero" transform="translate(98.000000, 230.000000) scale(1, -1) translate(-98.000000, -230.000000) " points="0 177 196 87 196 283 0 373"></polygon>
                    <polygon id="Top" fill="#1DA1F2" fill-rule="nonzero" points="-8.52651283e-14 88.4024012 196 177.02076 392.554807 88.4024012 196.085772 1.56319402e-13"></polygon>
                    <path d="M151,187.049153 C146.386037,190.284414 141.277429,192.758869 135.870909,194.377228 C129.927005,187.583374 120.34851,185.200919 111.886393,188.411569 C103.424275,191.622219 97.8785831,199.74301 98,208.746 L98,213.535591 C80.8022942,213.97888 64.5233947,205.833788 54.6363636,191.838744 C54.6363636,191.838744 35.3636364,234.945063 78.7272727,254.103427 C68.8043601,260.799114 56.9835742,264.15644 45,263.682609 C88.3636364,287.630564 141.363636,263.682609 141.363636,208.602313 C141.359199,207.26819 141.230161,205.937357 140.978182,204.626952 C145.895633,199.806196 149.365805,193.719678 151,187.049153 Z" id="Twitter" fill="#FFFFFF" fill-rule="evenodd"></path>
                    <polygon id="Tape-Top" fill="#1C73A8" fill-rule="nonzero" points="271.196655 143.117279 83.9980621 50.547348 126.703888 31.2927246 311.679214 124.865194"></polygon>
                    <polygon id="Tape-Side" fill="#156290" fill-rule="nonzero" points="271.192093 143.112823 271.023978 195.009423 311.707365 175.559073 311.707365 124.862573"></polygon>
                </g>
                <g id="Package" transform="translate(207.000000, 396.000000)">
                    <polygon id="Right" fill="#1F8CCF" fill-rule="nonzero" points="196.498728 177 392.997455 87 392.997455 283 196.498728 373"></polygon>
                    <polygon id="Left" fill="#62C3FF" fill-rule="nonzero" transform="translate(98.249364, 230.000000) scale(1, -1) translate(-98.249364, -230.000000) " points="0 177 196.498728 87 196.498728 283 0 373"></polygon>
                    <polygon id="Top" fill="#1DA1F2" fill-rule="nonzero" points="-8.52651283e-14 88.4024012 196.498728 177.02076 393.553674 88.4024012 196.584718 1.56319402e-13"></polygon>
                    <path d="M151.384224,187.049153 C146.75852,190.284414 141.636913,192.758869 136.216637,194.377228 C130.257608,187.583374 120.65474,185.200919 112.171091,188.411569 C103.687441,191.622219 98.127638,199.74301 98.2493639,208.746 L98.2493639,213.535591 C81.007898,213.97888 64.6875763,205.833788 54.7753875,191.838744 C54.7753875,191.838744 35.4536202,234.945063 78.9275966,254.103427 C68.9794348,260.799114 57.1285706,264.15644 45.1145038,263.682609 C88.5884802,287.630564 141.72334,263.682609 141.72334,208.602313 C141.718892,207.26819 141.589525,205.937357 141.336905,204.626952 C146.266869,199.806196 149.74587,193.719678 151.384224,187.049153 Z" id="Twitter" fill="#FFFFFF" fill-rule="evenodd"></path>
                    <polygon id="Tape-Top" fill="#1C73A8" fill-rule="nonzero" points="271.886723 143.117279 84.2117977 50.547348 127.02629 31.2927246 312.472291 124.865194"></polygon>
                    <polygon id="Tape-Side" fill="#156290" fill-rule="nonzero" points="271.882149 143.112823 271.713606 195.009423 312.500513 175.559073 312.500513 124.862573"></polygon>
                </g>
            </g>
        </g>
    </g>
</svg>