<?xml version="1.0" encoding="UTF-8"?>
<svg width="1024px" height="1024px" viewBox="0 0 1024 1024" version="1.1" xmlns="http://www.w3.org/2000/svg" xmlns:xlink="http://www.w3.org/1999/xlink">
    <!-- Generator: Sketch 51.2 (57519) - http://www.bohemiancoding.com/sketch -->
    <title>icon-1024</title>
    <desc>Created with Sketch.</desc>
    <defs>
        <linearGradient x1="50%" y1="0%" x2="50%" y2="100%" id="linearGradient-1">
            <stop stop-color="#40CAE5" offset="0%"></stop>
            <stop stop-color="#0A3FB2" offset="100%"></stop>
        </linearGradient>
    </defs>
    <g id="1024" stroke="none" stroke-width="1" fill="none" fill-rule="evenodd">
        <g id="icon">
            <g id="Icon" transform="translate(46.269531, 38.000000)">
                <path d="M8.10770451,218.645055 L463.15262,435.756209 L463.15262,950 L74.135528,772.683253 L15.6257006,732.297382 L8.10770451,636.563394 L0.621604064,331.980013 L8.10770451,218.645055 Z M929.967233,218.645055 L937.453334,331.980013 L929.967233,636.563394 L922.449237,732.297382 L863.93941,772.683253 L474.922318,950 L474.922318,435.756209 L929.967233,218.645055 Z M22.4843416,218.098844 L236.253394,97.5689583 L468.185697,0.0087931724 L679.444018,97.5689583 L913.887052,218.098844 L463.15262,433.545639 L22.4843416,218.098844 Z" id="Faces" fill="url(#linearGradient-1)" fill-rule="nonzero"></path>
                <g id="Frame" transform="translate(2.011719, 2.000000)" stroke="#232C46" stroke-linecap="round" stroke-linejoin="round">
                    <path d="M503.32853,9.19975049 L873.081536,185.323051 C904.49472,200.193582 924.366152,230.721298 924.384766,264.138228 L924.384766,683.751991 C924.366152,717.168921 904.49472,747.696637 873.081536,762.567168 L503.32853,938.690469 C477.290157,951.103177 446.634668,951.103177 420.596295,938.690469 L50.8432891,762.567168 C19.4601517,747.502856 -0.24231019,716.788924 0.00225074169,683.311683 L0.00225074169,264.138228 C0.0208643526,230.721298 19.8922966,200.193582 51.3054803,185.323051 L421.058486,9.19975049 C446.970436,-3.0665835 477.41658,-3.0665835 503.32853,9.19975049 Z" id="Shape" stroke-width="30"></path>
                    <polyline id="Shape" stroke-width="20" points="14.190117 216.624434 461.178803 428.959276 908.167489 216.624434"></polyline>
                    <path d="M463.205963,948 L463.205963,430.031674" id="Shape" stroke-width="20"></path>
                    <path d="M231.096191,99.7330317 L694.302154,319.574661" id="Shape" stroke-width="20"></path>
                </g>
            </g>
        </g>
    </g>
</svg>